<?xml version="1.0" standalone="no"?> <!DOCTYPE svg PUBLIC "-//W3C//DTD SVG 1.1//EN" "http://www.w3.org/Graphics/SVG/1.1/DTD/svg11.dtd"> <svg   version="1.1"     xmlns="http://www.w3.org/2000/svg"  xmlns:xlink="http://www.w3.org/1999/xlink" name="" width="1600.0" height="1600.0" background="N_PAPERBACKGROUND_WHITE_BLANK" line-height="30.0" margin-top="40.0" margin-right="40.0" margin-bottom="40.0" margin-left="40.0"><g id='id-background-layer'  type='type-normal' preserveAspectRatio="none" ><rect  style = ' stroke:#FFFFFF;  fill:#FFFFFF;  stroke-width:0.0;' x="0" y="0" width="1600" height="1600" preserveAspectRatio="none" transform="rotate(   0,  800,  800)" ></rect></g><g id='id-main-layer'  type='type-normal' preserveAspectRatio="none" ><image  style = '   fill:none;  stroke-width:0.0;' x="16" y="76" width="1559" height="877" xlink:href='resources/20170812_174342.png' preserveAspectRatio="xMidYMid" transform="rotate(   0,  795,  514) "></image><path  style = ' stroke:#FFFF73;  fill:none;  stroke-width:4.0;' d="M973.41 114.95 L972.72 115.93 L972.20 116.53 L971.09 117.93 L969.88 119.23 L968.20 121.09 L966.43 123.05 L964.66 125.29 L963.26 127.24 L961.49 129.76 L959.54 132.46 L957.02 136.09 L954.60 139.63 L952.27 142.98 L950.04 146.05 L947.80 149.03 L945.47 152.11 L943.43 154.62 L941.38 157.23 L939.33 160.12 L937.19 163.38 L935.42 166.17 L934.11 168.13 L933.09 169.52 L932.16 170.73 L931.04 172.22 L929.92 173.81 L928.71 175.58 L927.78 176.97 L926.85 178.37 L926.01 179.67 L925.08 181.16 L924.15 182.47 L923.22 183.77 L922.19 184.98 L921.35 186.01 L920.61 186.94 L919.96 187.87 L919.30 188.89 L918.65 189.92 L918.00 191.04 L917.35 192.06 L916.70 192.99 L916.05 193.92 L915.39 194.95 " stroke-linecap='round' stroke-linejoin='round' brush-type='2' stroke-wetness='0.5'></path><path  style = ' stroke:#FFFF73;  fill:none;  stroke-width:4.0;' d="M969.31 313.92 L970.36 313.32 L971.05 312.92 L972.45 312.08 L973.54 311.38 L974.84 310.58 L976.13 309.84 L977.48 309.04 L978.72 308.24 L980.07 307.35 L981.41 306.45 L982.76 305.55 L984.10 304.66 L985.45 303.71 L986.79 302.76 L988.14 301.82 L989.43 300.92 L990.68 300.02 L991.87 299.13 L993.12 298.23 L994.36 297.39 L995.56 296.54 L996.70 295.74 L997.85 294.95 L999.04 294.15 L1000.29 293.30 L1001.58 292.36 L1002.93 291.41 L1004.32 290.41 L1005.77 289.37 L1007.31 288.27 L1008.85 287.13 L1010.45 285.98 L1012.04 284.79 L1013.68 283.59 L1015.28 282.40 L1016.87 281.15 L1018.41 279.86 L1019.96 278.61 L1021.40 277.47 L1022.80 276.42 L1024.19 275.32 L1025.59 274.18 L1026.98 272.98 L1028.37 271.84 L1029.77 270.74 L1031.21 269.70 L1032.71 268.65 L1034.25 267.56 L1035.75 266.46 L1037.24 265.31 L1038.73 264.22 L1040.28 263.17 L1041.77 262.18 L1043.22 261.18 L1044.61 260.13 L1046.00 259.09 L1047.40 258.04 L1048.74 256.95 L1050.04 255.80 L1051.28 254.66 L1052.48 253.56 L1053.62 252.52 L1054.72 251.47 L1055.81 250.47 L1056.91 249.43 L1058.11 248.33 L1059.35 247.19 L1060.55 246.09 L1061.64 245.15 L1062.64 244.30 L1063.63 243.55 L1064.68 242.75 L1065.77 241.91 L1066.87 240.96 L1067.97 239.97 L1069.06 238.97 L1070.16 238.07 L1071.25 237.18 L1072.40 236.23 L1073.59 235.23 L1074.74 234.29 L1075.83 233.44 L1076.93 232.60 L1078.08 231.75 L1079.37 230.85 L1080.76 229.91 L1082.36 228.86 L1084.10 227.71 L1085.99 226.57 L1088.04 225.42 L1090.23 224.28 L1092.57 223.03 L1094.96 221.79 L1097.30 220.49 L1099.59 219.20 L1101.88 217.80 L1104.12 216.36 L1106.26 214.92 L1108.35 213.47 L1110.45 212.08 L1112.54 210.78 L1114.53 209.64 L1116.42 208.64 L1118.36 207.55 L1120.16 206.50 L1122.05 205.35 L1123.89 204.26 L1125.88 203.01 L1127.93 201.77 L1130.07 200.47 L1132.36 199.18 L1134.75 197.83 L1137.19 196.44 L1139.63 195.00 L1142.07 193.55 L1144.56 192.01 L1147.15 190.36 L1149.69 188.67 L1152.18 187.03 L1154.57 185.43 L1156.91 183.79 L1159.10 182.20 L1165.23 176.82 L1171.65 170.89 L1177.93 165.02 L1180.07 162.92 L1181.51 161.63 L1182.81 160.53 L1183.85 159.69 L1184.95 158.79 L1186.04 157.80 L1187.24 156.80 L1188.43 155.85 L1189.63 154.96 L1190.72 154.06 L1191.77 153.11 L1192.87 152.17 L1194.01 151.22 L1195.21 150.33 L1196.45 149.53 L1197.70 148.78 L1198.94 148.13 L1200.14 147.49 L1201.28 146.89 L1202.38 146.34 L1203.37 145.84 L1204.37 145.35 L1205.41 144.75 L1206.41 144.15 L1207.36 143.55 L1208.25 143.00 L1209.20 142.36 L1210.20 141.66 L1211.19 141.01 L1213.03 140.32 " stroke-linecap='round' stroke-linejoin='round' brush-type='2' stroke-wetness='0.5'></path><path  style = ' stroke:#FFFF73;  fill:none;  stroke-width:4.0;' d="M1208.15 143.43 L1209.01 142.64 L1209.77 142.05 L1211.05 141.05 L1212.10 140.33 L1212.96 139.67 L1213.86 138.95 L1214.72 138.24 L1215.57 137.58 L1216.48 136.86 L1217.43 136.05 L1218.43 135.20 L1219.47 134.25 L1220.52 133.34 L1221.57 132.44 L1222.52 131.63 L1223.42 130.91 L1224.52 130.06 L1225.61 129.20 L1226.66 128.35 L1227.66 127.44 L1228.66 126.49 L1229.70 125.44 L1230.56 124.64 L1231.42 123.83 L1232.32 123.02 L1233.27 122.11 L1234.27 121.16 L1235.17 120.21 L1235.98 119.35 L1236.70 118.55 L1237.41 117.78 L1238.22 116.98 L1239.03 116.12 L1239.98 115.17 L1240.93 114.31 L1242.07 113.60 " stroke-linecap='round' stroke-linejoin='round' brush-type='2' stroke-wetness='0.5'></path><path  style = ' stroke:#FFFF73;  fill:none;  stroke-width:4.0;' d="M956.10 274.59 L956.24 275.73 L956.39 276.54 L956.72 278.30 L957.15 279.92 L957.67 281.77 L958.34 283.82 L959.15 286.10 L960.00 288.39 L960.76 290.48 L961.43 292.24 L962.10 293.86 L962.81 295.43 L963.52 297.04 L964.19 298.57 L964.81 300.04 L965.38 301.37 L965.95 302.71 L966.43 303.94 L966.85 305.08 L967.38 306.32 L968.00 307.56 L968.61 308.80 L969.14 309.75 L969.71 310.79 L970.33 311.84 " stroke-linecap='round' stroke-linejoin='round' brush-type='2' stroke-wetness='0.5'></path><path  style = ' stroke:#FFFF73;  fill:none;  stroke-width:4.0;' d="M915.71 195.24 L916.85 195.09 L917.52 195.43 L918.95 196.28 L920.04 197.95 L921.33 199.99 L922.75 202.32 L924.23 204.75 L925.70 207.22 L927.13 209.79 L928.56 212.41 L929.98 215.17 L931.36 217.79 L932.60 220.26 L933.69 222.45 L934.74 224.49 L935.79 226.54 L936.93 228.68 L938.07 231.01 L939.21 233.49 L940.16 235.96 L940.88 238.24 L941.35 240.29 L941.69 242.19 L942.07 243.95 L942.54 245.66 L943.26 247.33 L944.11 249.18 L944.92 250.85 L945.54 252.32 L945.97 253.42 L946.35 254.47 L946.73 255.42 L947.06 256.46 L947.44 257.61 L947.78 258.84 L948.06 259.94 L948.30 260.98 L948.63 262.08 " stroke-linecap='round' stroke-linejoin='round' brush-type='2' stroke-wetness='0.5'></path><path  style = ' stroke:#BF0000;  fill:none;  stroke-width:4.0;' d="M419.05 841.28 L417.55 840.72 L416.80 839.02 L415.54 835.64 L415.29 831.50 L415.42 827.61 L416.04 823.98 L416.80 821.09 " stroke-linecap='round' stroke-linejoin='round' brush-type='2' stroke-wetness='0.5'></path><path  style = ' stroke:#BF0000;  fill:none;  stroke-width:4.0;' d="M423.94 813.82 L424.51 812.32 L425.07 810.94 L426.45 808.43 L428.08 806.17 L429.96 804.04 L431.84 801.66 " stroke-linecap='round' stroke-linejoin='round' brush-type='2' stroke-wetness='0.5'></path><path  style = ' stroke:#BF0000;  fill:none;  stroke-width:4.0;' d="M434.10 796.89 L435.04 795.58 L436.23 794.26 L438.87 791.38 L441.87 788.24 L445.26 784.86 L448.77 781.47 L452.78 778.08 L456.80 775.20 " stroke-linecap='round' stroke-linejoin='round' brush-type='2' stroke-wetness='0.5'></path><path  style = ' stroke:#BF0000;  fill:none;  stroke-width:4.0;' d="M467.20 769.81 L469.08 768.30 L470.59 767.18 L473.85 764.54 L476.98 762.03 L480.37 759.28 L483.76 756.77 L487.27 754.26 L490.90 752.00 " stroke-linecap='round' stroke-linejoin='round' brush-type='2' stroke-wetness='0.5'></path><path  style = ' stroke:#BF0000;  fill:none;  stroke-width:4.0;' d="M502.94 749.12 L504.82 747.99 L506.33 747.11 L509.46 745.23 L512.72 743.48 L516.61 741.47 L520.87 739.34 L525.26 737.08 L529.65 734.70 L534.04 732.32 " stroke-linecap='round' stroke-linejoin='round' brush-type='2' stroke-wetness='0.5'></path><path  style = ' stroke:#BF0000;  fill:none;  stroke-width:4.0;' d="M548.83 728.05 L551.09 727.87 L552.97 727.43 L556.98 726.42 L561.12 725.04 L565.89 723.16 L570.78 720.91 L575.54 718.27 L579.18 716.14 " stroke-linecap='round' stroke-linejoin='round' brush-type='2' stroke-wetness='0.5'></path><path  style = ' stroke:#BF0000;  fill:none;  stroke-width:4.0;' d="M601.50 709.62 L602.63 709.06 L603.75 708.24 L606.26 706.49 L609.02 704.23 L612.15 701.85 L615.16 699.59 L617.55 697.96 " stroke-linecap='round' stroke-linejoin='round' brush-type='2' stroke-wetness='0.5'></path><path  style = ' stroke:#BF0000;  fill:none;  stroke-width:4.0;' d="M619.18 695.70 L620.87 694.58 L622.31 693.45 L625.32 691.06 L628.46 688.31 L632.22 685.05 L636.36 681.53 L640.49 678.02 L644.38 674.76 L648.27 671.75 L651.78 669.25 " stroke-linecap='round' stroke-linejoin='round' brush-type='2' stroke-wetness='0.5'></path><path  style = ' stroke:#BF0000;  fill:none;  stroke-width:4.0;' d="M662.81 661.10 L663.56 660.16 L664.32 659.34 L666.20 657.46 L668.58 655.33 L671.46 652.82 L674.98 649.94 L678.99 646.93 L683.38 643.79 L687.51 640.91 L691.28 638.27 L694.29 636.39 " stroke-linecap='round' stroke-linejoin='round' brush-type='2' stroke-wetness='0.5'></path><path  style = ' stroke:#BF0000;  fill:none;  stroke-width:4.0;' d="M704.19 632.51 L705.13 631.38 L706.07 630.38 L708.08 628.24 L710.46 625.86 L713.34 622.85 L716.73 619.47 L720.37 615.83 L724.13 612.19 L727.76 608.56 L731.28 605.30 L734.28 602.66 L736.54 601.03 " stroke-linecap='round' stroke-linejoin='round' brush-type='2' stroke-wetness='0.5'></path><path  style = ' stroke:#BF0000;  fill:none;  stroke-width:4.0;' d="M744.44 596.39 L745.76 594.89 L746.95 593.51 L749.21 590.75 L751.21 588.12 L753.34 585.23 L755.85 581.97 L758.74 578.46 L761.62 575.20 L764.25 572.32 L766.64 569.81 L768.89 567.55 " stroke-linecap='round' stroke-linejoin='round' brush-type='2' stroke-wetness='0.5'></path><path  style = ' stroke:#BF0000;  fill:none;  stroke-width:4.0;' d="M786.57 553.89 L788.64 550.88 L790.08 549.12 L792.97 545.49 L795.48 542.98 L798.36 540.09 L801.74 536.83 L805.38 533.45 L808.26 530.82 " stroke-linecap='round' stroke-linejoin='round' brush-type='2' stroke-wetness='0.5'></path><path  style = ' stroke:#BF0000;  fill:none;  stroke-width:4.0;' d="M801.62 537.71 L802.94 536.21 L804.38 534.70 L807.51 531.69 L811.15 528.56 L815.16 525.17 L819.42 521.66 L823.81 518.15 L827.95 514.89 L832.47 511.00 L837.10 506.87 L841.37 503.23 " stroke-linecap='round' stroke-linejoin='round' brush-type='2' stroke-wetness='0.5'></path><path  style = ' stroke:#BF0000;  fill:none;  stroke-width:4.0;' d="M857.29 496.33 L856.92 495.02 L857.54 493.83 L858.80 491.32 L861.18 488.68 L863.69 485.55 L866.32 482.16 L869.08 478.53 L871.71 475.27 L874.09 472.63 L875.85 470.88 " stroke-linecap='round' stroke-linejoin='round' brush-type='2' stroke-wetness='0.5'></path><path  style = ' stroke:#BF0000;  fill:none;  stroke-width:4.0;' d="M881.37 467.74 L882.50 466.43 L883.62 465.24 L885.88 462.60 L888.26 459.84 L890.90 456.71 L893.53 453.58 L896.04 450.44 L898.17 447.43 L900.18 444.30 L901.93 441.41 L903.31 439.16 " stroke-linecap='round' stroke-linejoin='round' brush-type='2' stroke-wetness='0.5'></path><path  style = ' stroke:#BF0000;  fill:none;  stroke-width:4.0;' d="M907.32 435.39 L908.64 434.08 L909.71 432.89 L911.84 430.25 L913.84 427.49 L916.10 424.23 L918.48 420.85 L920.74 417.46 L922.87 414.08 L925.13 410.44 L927.51 407.18 " stroke-linecap='round' stroke-linejoin='round' brush-type='2' stroke-wetness='0.5'></path><path  style = ' stroke:#BF0000;  fill:none;  stroke-width:4.0;' d="M938.17 399.66 L939.11 398.72 L939.92 397.78 L941.68 395.77 L943.56 393.51 L945.94 391.01 L948.58 388.37 L951.08 385.61 L953.09 383.11 L954.47 380.72 " stroke-linecap='round' stroke-linejoin='round' brush-type='2' stroke-wetness='0.5'></path><path  style = ' stroke:#BF0000;  fill:none;  stroke-width:4.0;' d="M957.73 372.57 L957.73 371.26 L957.73 370.32 L957.73 368.18 L957.86 366.30 L958.11 363.80 L958.36 361.16 L958.36 358.28 L957.98 355.65 L957.23 353.26 L956.48 351.13 " stroke-linecap='round' stroke-linejoin='round' brush-type='2' stroke-wetness='0.5'></path><path  style = ' stroke:#BF0000;  fill:none;  stroke-width:4.0;' d="M953.97 349.63 L953.40 348.69 L952.97 347.87 L952.34 346.24 L952.09 344.49 L952.21 342.48 L952.59 340.10 L953.34 337.46 L954.34 334.83 L955.22 332.70 " stroke-linecap='round' stroke-linejoin='round' brush-type='2' stroke-wetness='0.5'></path><path  style = ' stroke:#BF0000;  fill:none;  stroke-width:4.0;' d="M963.37 328.18 L963.37 326.87 L963.50 325.68 L964.00 323.17 L964.75 320.54 L965.63 317.78 L966.13 314.77 L966.38 311.76 L966.38 308.62 L966.38 305.74 L966.38 303.11 L966.38 300.85 " stroke-linecap='round' stroke-linejoin='round' brush-type='2' stroke-wetness='0.5'></path><path  style = ' stroke:#BF0000;  fill:none;  stroke-width:4.0;' d="M962.62 307.12 L962.43 305.80 L962.37 305.11 L962.24 303.73 L962.24 302.61 L962.24 301.48 L962.12 300.22 L961.87 299.09 L961.49 297.46 L960.99 295.21 L960.49 292.45 L959.86 289.31 L959.23 286.05 L958.73 282.67 L958.73 279.53 L959.23 277.03 " stroke-linecap='round' stroke-linejoin='round' brush-type='2' stroke-wetness='0.5'></path><path  style = ' stroke:#BF0000;  fill:none;  stroke-width:4.0;' d="M960.36 277.03 L960.18 275.90 L960.86 273.89 L961.99 270.25 L963.75 266.12 L965.50 262.36 L967.89 258.72 " stroke-linecap='round' stroke-linejoin='round' brush-type='2' stroke-wetness='0.5'></path><path  style = ' stroke:#BF0000;  fill:none;  stroke-width:4.0;' d="M976.54 250.32 L976.73 248.81 L977.17 247.68 L978.42 245.30 L980.55 242.92 L983.43 240.04 L986.57 236.90 L989.20 234.27 " stroke-linecap='round' stroke-linejoin='round' brush-type='2' stroke-wetness='0.5'></path><path  style = ' stroke:#BF0000;  fill:none;  stroke-width:4.0;' d="M998.73 228.50 L998.92 227.18 L999.86 225.99 L1001.99 223.36 L1005.13 220.60 L1008.51 217.47 L1011.90 214.21 L1015.28 210.82 L1018.04 208.06 " stroke-linecap='round' stroke-linejoin='round' brush-type='2' stroke-wetness='0.5'></path><path  style = ' stroke:#BF0000;  fill:none;  stroke-width:4.0;' d="M1026.95 201.04 L1027.51 199.72 L1028.32 198.53 L1030.21 196.02 L1032.59 193.52 L1035.47 190.63 L1038.61 187.50 L1041.99 184.11 L1045.50 180.98 " stroke-linecap='round' stroke-linejoin='round' brush-type='2' stroke-wetness='0.5'></path></g><g id='id-text-layer'  type='type-normal' preserveAspectRatio="none" ><text  style = 'fill: #000000; font-family:Helvetica-Light; font-size:18.0; ' preserveAspectRatio="none" x= '40' y='40' width = '1520' height = '1520' transform="rotate(   0,  800,  800)" ><tspan visibility='hidden'><![CDATA[]]></tspan></text></g><recordings ></recordings><defs   ></defs><htext lang='de_DE' timestamp='20170812-175020'><![CDATA[c. รท:'
%
รท:']]></htext></svg> 