<?xml version="1.0" standalone="no"?> <!DOCTYPE svg PUBLIC "-//W3C//DTD SVG 1.1//EN" "http://www.w3.org/Graphics/SVG/1.1/DTD/svg11.dtd"> <svg   version="1.1"     xmlns="http://www.w3.org/2000/svg"  xmlns:xlink="http://www.w3.org/1999/xlink" name="" width="1600.0" height="1600.0" background="N_PAPERBACKGROUND_WHITE_BLANK" line-height="30.0" margin-top="40.0" margin-right="40.0" margin-bottom="40.0" margin-left="40.0"><g id='id-background-layer'  type='type-normal' preserveAspectRatio="none" ><rect  style = ' stroke:#FFFFFF;  fill:#FFFFFF;  stroke-width:0.0;' x="0" y="0" width="1600" height="1600" preserveAspectRatio="none" transform="rotate(   0,  800,  800)" ></rect></g><g id='id-main-layer'  type='type-normal' preserveAspectRatio="none" ><image  style = '   fill:none;  stroke-width:0.0;' x="19" y="115" width="1556" height="871" xlink:href='resources/20170812_171008.png' preserveAspectRatio="xMidYMid" transform="rotate(   0,  797,  550) "></image><path  style = ' stroke:#FFFF73;  fill:none;  stroke-width:5.0;' d="M1082.59 338.62 L1081.64 339.43 L1080.87 340.16 L1079.51 341.42 L1078.43 342.51 L1077.52 343.41 L1076.53 344.41 L1075.44 345.49 L1074.36 346.49 L1073.27 347.57 L1072.37 348.48 L1071.28 349.74 L1070.20 350.83 L1069.11 351.82 L1067.84 352.91 L1066.58 354.09 L1065.31 355.35 L1064.05 356.71 L1062.78 358.16 L1061.51 359.60 L1060.34 360.87 L1059.16 361.95 L1057.90 363.04 L1056.72 363.85 L1055.54 364.67 L1054.37 365.57 L1053.28 366.48 L1052.29 367.47 L1051.11 368.47 L1050.03 369.46 L1048.94 370.46 L1048.04 371.36 L1047.04 372.35 L1045.96 373.26 L1044.78 374.25 L1043.70 375.16 L1042.34 376.33 L1041.16 377.42 L1039.90 378.59 L1038.90 379.50 L1037.64 380.49 L1036.37 381.40 L1035.10 382.30 L1033.66 383.30 L1032.30 384.20 L1031.03 385.11 L1029.77 386.10 L1028.50 387.19 L1027.15 388.27 L1025.97 389.09 L1024.70 389.81 L1023.26 390.62 L1022.08 391.35 L1020.54 392.34 L1019.10 393.34 L1017.47 394.42 L1016.11 395.33 L1014.75 396.14 L1013.31 396.95 L1011.95 397.59 L1010.59 398.13 L1009.33 398.58 L1007.88 399.13 L1006.34 399.76 L1004.81 400.48 L1003.54 401.11 L1002.18 401.84 L1001.01 402.47 L999.74 403.38 L998.75 404.10 L997.48 405.09 L995.94 406.00 L994.50 406.81 L992.96 407.45 L991.42 408.08 L989.43 408.89 L987.53 409.71 L985.63 410.52 L983.91 411.43 L982.20 412.33 L980.57 413.32 L979.21 414.14 L977.76 414.95 L976.41 415.68 L974.87 416.49 L973.60 417.21 L972.34 417.94 L970.98 418.66 L969.53 419.47 L968.18 420.29 L967.00 421.19 L965.92 422.10 L964.83 423.09 L963.66 424.09 L962.39 425.26 L960.94 426.44 L959.59 427.61 L958.23 428.70 L956.96 429.69 L955.61 430.60 L954.25 431.50 L952.98 432.32 L951.72 433.13 L950.54 433.85 L949.27 434.67 L948.01 435.57 L946.74 436.39 L945.48 437.29 L944.30 438.11 L943.03 439.01 L941.77 439.82 L940.32 440.73 L938.78 441.72 L937.16 442.72 L935.44 443.71 L933.63 444.71 L931.73 445.79 L929.83 446.97 L927.84 448.05 L925.85 449.14 L923.86 450.13 L921.96 451.22 L920.06 452.30 L918.25 453.30 L916.44 454.20 L914.73 455.02 L913.01 455.74 L911.47 456.47 L909.93 457.28 L908.49 458.09 L907.04 458.91 L905.77 459.63 L904.51 460.44 L903.15 461.26 L901.70 462.07 L900.17 462.98 L898.72 463.97 L897.09 465.06 L895.46 466.14 L893.65 467.23 L891.84 468.40 L889.85 469.67 L887.77 471.03 L885.69 472.38 L883.70 473.65 L881.81 474.82 L879.91 475.91 L878.10 477.00 L876.29 478.08 L874.57 479.17 L872.85 480.25 L871.22 481.34 L869.51 482.33 L867.79 483.24 L866.16 484.05 L864.71 484.86 L863.36 485.68 L862.00 486.49 L860.55 487.31 L859.01 488.12 L857.39 489.02 L855.76 490.02 L854.13 491.10 L852.50 492.19 L850.87 493.37 L849.34 494.63 L847.80 495.90 L846.35 497.16 L844.81 498.34 L843.37 499.61 L841.92 500.78 L840.56 501.87 L839.30 502.77 L838.12 503.59 L837.04 504.31 L835.68 505.21 L834.32 506.12 L832.88 507.29 L831.70 508.38 L830.62 509.55 L829.71 510.55 L828.81 511.45 L827.54 512.54 L826.18 513.62 L824.92 514.71 L823.83 515.43 L822.75 516.16 L821.57 516.88 L820.49 517.60 L819.31 518.24 L818.13 518.87 L816.87 519.50 L815.60 520.14 L814.34 520.68 L813.07 521.22 L811.80 521.85 L810.54 522.40 L808.91 523.12 L807.46 523.75 L806.02 524.48 L804.75 525.20 L803.48 525.92 L802.22 526.65 L800.95 527.28 L799.59 528.00 L798.33 528.73 L797.06 529.63 L795.89 530.54 L794.53 531.53 L793.35 532.35 L792.09 533.16 L790.91 533.97 L789.74 534.97 L788.56 536.05 L787.38 537.23 L786.21 538.13 L784.94 538.86 L783.59 539.22 L782.23 539.31 L780.69 539.13 L779.34 538.95 L777.89 538.77 L776.44 538.68 L774.99 538.59 L773.46 538.59 L772.19 538.59 L770.74 538.59 L769.12 538.50 L767.40 538.31 L765.68 538.04 L764.32 537.86 L762.87 537.68 L761.43 537.50 L759.98 537.23 L758.62 537.05 L757.27 536.96 L755.82 536.96 L754.46 536.87 L753.02 536.60 L751.66 536.23 L750.30 535.60 L749.22 534.79 L748.13 533.88 L747.05 533.16 L745.78 532.71 L744.52 532.80 L743.43 533.61 L742.53 535.06 L741.89 536.51 L741.35 537.86 L740.81 539.22 L740.26 540.58 L739.63 541.93 L739.18 543.20 L738.73 544.46 L738.27 545.73 L737.64 546.91 L736.83 547.99 L735.74 548.72 L734.48 549.08 L733.12 549.08 L731.94 548.53 L730.86 547.63 L729.86 546.64 L728.78 545.91 L727.60 545.37 L726.34 544.92 L724.89 544.56 L723.44 544.37 L722.00 544.28 L720.37 544.37 L718.83 544.46 L717.20 544.65 L715.75 544.74 L714.31 544.83 L712.95 544.74 L711.78 544.37 L710.51 544.37 L709.33 544.92 L708.25 546.09 L707.34 547.54 L706.71 548.81 L706.08 550.34 L705.53 551.52 L704.90 553.06 L704.45 554.41 L704.09 555.86 L703.91 557.13 L703.64 558.39 L703.36 559.75 L702.91 561.02 L702.46 562.28 L701.83 563.46 L701.10 564.63 L700.38 565.81 L699.57 567.17 L698.84 568.43 L698.03 569.70 L697.40 570.87 L696.67 572.32 L696.13 573.59 L695.41 574.85 L694.68 575.94 L693.78 577.30 L692.87 578.74 L692.06 580.01 L691.06 581.27 L690.16 582.36 L689.26 583.54 L688.35 584.80 L687.45 586.16 L686.45 587.61 L685.64 588.78 L684.73 589.78 L683.74 590.77 L682.65 591.86 L681.57 593.03 L680.57 594.21 L679.58 595.47 L678.67 596.65 L677.68 598.01 L676.59 599.27 L675.60 600.45 L674.69 601.44 L673.97 602.35 L672.79 603.52 L671.62 604.52 L670.17 605.60 L669.09 606.51 L668.00 607.50 L667.01 608.41 L666.01 609.22 L664.75 610.13 L663.57 610.76 L662.12 611.57 L660.95 612.12 L659.59 613.02 L658.41 613.74 L656.88 614.74 L655.52 615.46 L654.16 616.19 L653.08 616.82 L651.72 617.72 L650.46 618.63 L649.01 619.62 L647.74 620.44 L646.48 621.25 L645.30 622.06 L644.22 622.97 L643.13 623.87 L642.14 624.87 L640.96 625.86 L639.78 626.86 L638.43 627.76 L637.34 628.58 L636.17 629.39 L635.17 630.11 L634.00 630.75 L632.82 631.47 L631.55 632.19 L630.38 633.10 L629.29 634.00 L628.12 635.09 L627.12 635.99 L626.04 636.99 L625.04 637.80 L623.96 638.70 L622.78 639.61 L621.61 640.69 L620.52 641.78 L619.52 642.77 L618.26 643.77 L616.81 644.76 L615.36 645.76 L614.28 646.57 L613.19 647.39 L612.11 648.29 L611.02 649.20 L609.94 650.19 L608.85 651.10 L607.68 652.09 L606.59 652.99 L605.51 653.90 L604.51 654.80 L603.43 655.80 L602.43 656.88 L601.53 657.88 L600.62 658.78 L599.54 659.78 L598.45 660.68 L597.28 661.68 L596.19 662.58 L595.11 663.58 L593.75 664.84 L592.39 665.93 L590.85 667.19 L589.50 668.19 L587.96 669.46 L586.33 670.72 L584.61 672.08 L582.90 673.43 L581.09 674.79 L579.37 676.06 L577.65 677.23 L576.02 678.32 L574.48 679.40 L573.04 680.40 L571.86 681.30 L570.69 682.21 L569.60 683.11 L568.43 684.02 L567.25 684.83 L566.07 685.64 L564.81 686.55 L563.63 687.54 L562.37 688.72 L561.19 689.89 L559.92 691.07 L558.75 692.16 L557.48 693.24 L556.31 694.33 L555.13 695.41 L554.05 696.32 L552.78 697.40 L551.60 698.40 L550.52 699.48 L549.52 700.48 L548.62 701.47 L547.44 702.74 L546.45 703.73 L545.18 705.00 L544.19 705.99 L543.19 707.17 L542.02 708.25 L540.84 709.34 L539.66 710.24 L538.58 711.06 L537.58 711.87 L536.32 712.96 L535.32 713.86 L533.97 714.86 L532.97 715.67 L531.71 716.85 L530.80 717.84 L529.63 718.84 L528.54 719.65 L527.36 720.46 L526.10 721.28 L524.83 721.91 L523.39 722.54 L522.12 723.00 L520.85 723.45 L519.59 723.81 L518.32 724.17 L517.15 724.81 L516.24 725.71 L515.61 726.98 L515.16 728.33 L514.88 729.69 L514.70 731.32 L514.70 732.85 L514.79 734.39 L515.06 735.93 L515.43 737.47 L515.79 739.10 L516.06 740.36 L516.33 741.63 L516.69 742.89 L517.15 744.25 L517.69 745.61 L518.23 746.96 L518.77 748.41 L519.32 749.77 L520.22 750.85 L521.49 751.49 L522.93 751.76 L524.47 751.85 L526.01 751.58 L527.55 751.21 L529.08 750.49 L530.35 749.95 L531.80 749.22 L532.88 748.59 L533.97 747.78 L535.05 746.78 L536.14 745.79 L537.22 744.79 L538.22 743.89 L539.21 743.07 L540.57 741.90 L541.75 740.72 L543.01 739.46 L544.01 738.55 L545.00 737.74 L546.00 736.92 L546.99 736.11 L548.08 735.30 L549.43 734.39 L550.79 733.49 L552.06 732.67 L553.32 731.86 L554.50 731.14 L555.94 730.32 L557.12 729.69 L558.57 728.78 L559.74 727.88 L561.19 726.70 L562.37 725.80 L563.63 724.90 L564.99 723.99 L566.44 723.00 " stroke-linecap='round' stroke-linejoin='round' brush-type='2' stroke-wetness='0.5'></path><path  style = ' stroke:#FFFF73;  fill:none;  stroke-width:5.0;' d="M565.98 725.26 L566.80 724.04 L567.52 723.36 L568.70 722.18 L569.78 721.37 L570.78 720.65 L571.95 719.83 L573.13 719.11 L574.30 718.20 L575.39 717.21 L576.38 716.21 L577.56 715.13 L578.83 714.04 L580.09 713.05 L581.09 712.23 L582.08 711.42 L583.35 710.52 L584.61 709.70 L585.97 708.98 L587.15 708.25 L588.41 707.53 L589.68 706.72 L590.95 705.90 L592.12 705.09 L593.39 704.09 L594.47 703.28 L595.65 702.38 L596.64 701.65 L597.91 700.75 L598.99 699.93 L600.17 699.12 L601.35 698.31 L602.52 697.40 L603.70 696.41 L604.78 695.41 L605.87 694.51 L607.04 693.60 L608.13 692.79 L609.30 691.88 L610.39 691.16 L611.57 690.35 L612.92 689.44 L614.10 688.54 L615.36 687.63 L616.54 686.91 L617.99 686.01 L619.16 685.28 L620.61 684.38 L621.79 683.65 L623.23 682.84 L624.41 682.21 L625.86 681.30 L627.03 680.49 L628.21 679.58 L629.38 678.86 L630.56 678.14 L632.01 677.32 L633.18 676.51 L634.54 675.61 L635.62 674.79 L636.89 673.98 L638.16 673.16 L639.51 672.35 L640.87 671.44 L642.32 670.45 L643.85 669.36 L645.39 668.37 L646.75 667.56 L647.92 666.92 L649.01 666.29 L650.09 665.66 L651.18 664.93 L652.36 664.21 L653.62 663.40 L654.89 662.58 L656.15 661.77 L657.33 661.04 L658.69 660.41 L659.86 659.87 L661.31 659.14 L662.48 658.42 L663.66 657.61 L664.75 656.70 L665.92 655.80 L667.19 654.89 L668.27 654.17 L669.36 653.45 L670.71 652.63 L672.07 651.91 L673.43 651.19 L674.78 650.37 L676.05 649.47 L677.23 648.47 L678.49 647.39 L679.76 646.39 L681.12 645.40 L682.47 644.40 L683.74 643.41 L685.00 642.41 L686.09 641.60 L687.45 640.69 L688.89 639.70 L690.25 638.80 L691.61 637.80 L692.96 636.81 L694.32 635.81 L695.50 635.00 L696.67 634.27 L697.85 633.46 L699.02 632.55 L700.20 631.65 L701.28 630.75 L702.64 629.84 L704.00 628.85 L705.26 628.12 L706.53 627.40 L707.89 626.77 L709.24 626.04 L710.60 625.32 L711.68 624.69 L713.04 623.87 L714.40 623.06 L715.75 622.24 L717.02 621.61 L718.20 620.98 L719.55 620.25 L720.82 619.62 L722.09 619.08 L723.35 618.63 L724.71 618.17 L726.07 617.63 L727.33 617.18 L728.78 616.55 L730.13 616.00 L731.58 615.28 L732.85 614.65 L734.11 614.01 L735.38 613.47 L736.65 612.93 L737.91 612.48 L739.45 611.84 L740.81 611.30 L742.25 610.58 L743.43 610.03 L744.70 609.40 L745.87 608.86 L747.14 608.23 L748.40 607.50 L749.76 606.69 L751.03 605.87 L752.38 605.15 L753.56 604.43 L754.74 603.79 L756.00 602.98 L757.27 602.26 L758.44 601.53 L759.53 600.81 L760.79 600.09 L762.24 599.18 L763.60 598.37 L764.95 597.46 L766.31 596.74 L767.76 596.02 L769.12 595.29 L770.29 594.57 L771.56 593.85 L773.09 593.12 L774.54 592.40 L775.99 591.58 L777.16 590.86 L778.43 590.14 L779.70 589.50 L781.05 588.69 L782.23 587.88 L783.31 587.06 L784.31 586.34 L785.49 585.62 L786.57 584.89 L787.66 584.17 L788.74 583.35 L789.92 582.54 L791.09 581.64 L792.18 580.82 L793.26 580.01 L794.44 579.19 L795.61 578.47 L796.88 577.66 L798.06 577.11 L799.59 576.39 L801.04 575.85 L802.58 575.21 L804.03 574.67 L805.47 574.22 L807.01 573.95 L808.55 573.77 L810.18 573.50 L811.89 573.13 L813.34 572.86 L814.88 572.68 L816.14 572.50 L817.77 572.23 L819.04 571.96 L820.67 571.60 L822.02 571.33 L823.74 571.05 L825.10 570.87 L826.46 570.60 L827.72 570.33 L828.99 570.06 L830.53 569.88 L832.15 569.70 L833.69 569.61 L835.23 569.43 L836.49 569.34 L838.03 569.25 L839.39 569.25 L840.75 569.25 L842.01 569.25 L843.37 569.25 L844.91 569.06 L846.62 568.79 L848.16 568.52 L849.88 568.34 L851.33 568.25 L852.86 568.16 L854.40 568.16 L855.94 568.07 L857.48 567.98 L859.10 567.80 L860.64 567.62 L862.36 567.35 L863.81 567.17 L865.25 567.08 L866.61 566.98 L867.97 566.89 L869.51 566.80 L870.86 566.80 L872.13 566.80 L873.39 566.89 L874.84 566.98 L876.29 567.08 L877.83 567.08 L879.36 567.08 L880.99 567.08 L882.62 567.17 L884.25 567.26 L885.88 567.35 L887.41 567.44 L888.86 567.53 L890.31 567.71 L891.66 567.80 L893.02 567.98 L894.38 568.07 L895.82 568.16 L897.36 568.16 L898.81 568.16 L900.17 568.16 L901.61 568.07 L903.06 567.80 L904.51 567.35 L905.68 566.80 L906.86 566.17 L908.12 565.45 L909.57 564.45 L910.84 563.55 L912.28 562.55 L913.55 561.83 L914.91 561.11 L916.08 560.56 L917.26 559.93 L918.52 559.21 L919.79 558.48 L921.06 557.76 L922.23 557.13 L923.32 556.40 L924.40 555.77 L925.58 554.96 L926.85 554.05 L928.02 553.15 L929.29 552.24 L930.46 551.61 L931.91 550.89 L933.27 550.25 L934.53 549.62 L935.89 548.81 L937.07 548.08 L938.33 547.18 L939.42 546.36 L940.68 545.46 L941.86 544.65 L943.03 543.83 L944.03 543.02 L945.30 541.93 L946.38 541.12 L947.74 540.21 L948.82 539.58 L950.00 538.77 L951.08 538.04 L952.26 537.23 L953.53 536.42 L954.70 535.78 L956.06 535.15 L957.41 534.52 L958.86 533.70 L960.04 532.98 L961.30 532.16 L962.66 531.17 L964.02 530.18 L965.46 529.18 L966.64 528.46 L968.18 527.55 L969.44 526.74 L970.89 525.83 L972.07 525.11 L973.42 524.21 L974.60 523.39 L975.96 522.40 L977.04 521.67 L978.22 520.86 L979.30 520.14 L980.39 519.32 L981.56 518.51 L982.65 517.69 L983.91 516.88 L985.18 515.98 L986.36 515.16 L987.80 514.35 L989.16 513.81 L990.88 513.08 L992.23 512.36 L993.59 511.54 L995.04 510.82 L996.49 510.19 L997.84 509.55 L999.11 508.92 L1000.28 508.29 L1001.73 507.56 L1003.00 506.84 L1004.35 506.21 L1005.89 505.57 L1007.25 505.12 L1008.60 504.58 L1009.87 504.04 L1011.23 503.40 L1012.58 502.86 L1014.12 502.23 L1015.66 501.60 L1017.29 500.87 L1018.55 500.33 L1019.91 499.79 L1021.27 499.24 L1022.53 498.70 L1023.80 498.16 L1025.06 497.62 L1026.33 497.07 L1027.51 496.53 L1028.68 496.08 L1029.86 495.63 L1031.12 495.17 L1032.39 494.63 L1033.75 494.09 L1035.10 493.55 L1036.37 493.00 L1037.55 492.46 L1038.99 491.65 L1040.44 490.83 L1041.89 489.93 L1042.97 489.30 L1044.42 488.48 L1045.87 487.67 L1047.40 486.85 L1048.58 486.13 L1049.94 485.32 L1051.11 484.59 L1052.47 483.87 L1053.64 483.33 L1055.18 482.60 L1056.45 482.06 L1057.99 481.43 L1059.25 480.97 L1060.61 480.43 L1062.06 479.98 L1063.41 479.44 L1065.13 478.80 L1066.67 478.08 L1068.12 477.45 L1069.29 476.81 L1070.38 476.09 L1071.55 475.37 L1072.91 474.55 L1074.08 473.92 L1075.53 473.02 L1076.89 472.20 L1078.24 471.39 L1079.60 470.66 L1080.78 470.03 L1082.22 469.22 L1083.40 468.58 L1084.67 467.86 L1085.84 467.14 L1087.11 466.32 L1088.37 465.42 L1089.46 464.70 L1090.82 463.70 L1092.08 462.80 L1093.44 461.89 L1094.89 460.99 L1096.24 460.17 L1097.60 459.36 L1098.68 458.73 L1099.86 458.00 L1101.04 457.19 L1102.12 456.47 L1103.21 455.74 L1104.29 455.11 L1105.38 454.39 L1106.64 453.66 L1107.82 452.94 L1108.99 452.12 L1109.99 451.31 L1111.07 450.41 L1112.16 449.59 L1113.25 448.87 L1114.42 448.14 L1115.60 447.42 L1116.77 446.61 L1117.86 445.88 L1119.31 445.07 L1120.75 444.26 L1122.11 443.35 L1123.47 442.36 L1124.82 441.27 L1126.09 440.28 L1127.35 439.19 L1128.53 438.20 L1129.89 437.11 L1131.15 435.93 L1132.42 434.76 L1133.69 433.49 L1134.59 432.59 L1135.58 431.68 L1136.85 430.60 L1138.21 429.51 L1139.47 428.43 L1140.74 427.43 L1141.83 426.53 L1143.18 425.35 L1144.18 424.36 L1145.26 423.27 L1146.26 422.37 L1147.25 421.46 L1148.43 420.47 L1149.42 419.66 L1150.60 418.75 L1151.59 417.94 L1152.86 416.94 L1153.94 416.04 L1155.12 415.13 L1156.39 414.14 L1157.65 413.23 L1159.01 412.15 L1160.00 411.24 L1161.27 410.07 L1162.36 409.16 L1163.53 408.26 L1164.71 407.36 L1165.88 406.36 L1166.97 405.37 L1168.05 404.28 L1169.23 403.20 L1170.31 402.11 L1171.31 401.02 L1172.12 399.94 L1173.12 398.67 L1173.93 397.50 L1174.75 396.23 L1175.38 394.96 L1175.92 393.79 L1176.46 392.61 L1177.19 391.53 L1177.82 390.35 L1178.09 389.00 L1177.82 387.64 L1177.10 386.28 L1176.28 385.20 L1175.20 384.20 L1174.11 383.48 L1172.76 382.94 L1171.22 382.57 L1169.77 382.30 L1168.23 382.03 L1166.88 381.67 L1165.34 381.13 L1163.98 380.40 L1162.72 379.68 L1161.54 378.96 L1160.46 378.23 L1159.37 377.42 L1158.38 376.61 L1157.38 375.79 L1156.39 374.98 L1155.30 374.07 L1154.13 373.08 L1152.95 371.99 L1151.77 370.82 L1150.60 369.55 L1149.60 368.47 L1148.61 367.38 L1147.79 366.48 L1146.71 365.30 L1145.80 364.31 " stroke-linecap='round' stroke-linejoin='round' brush-type='2' stroke-wetness='0.5'></path><path  style = ' stroke:#FFFF73;  fill:none;  stroke-width:5.0;' d="M1146.89 367.38 a2.50 2.50 0 1 0 0.01 0 " stroke-linecap='round' stroke-linejoin='round' brush-type='2' stroke-wetness='0.5'></path><path  style = ' stroke:#FFFF73;  fill:none;  stroke-width:5.0;' d="M1147.43 367.11 L1147.16 365.75 L1147.07 364.85 L1146.71 363.13 L1146.08 361.86 L1145.08 360.78 L1144.00 359.87 L1142.82 358.97 L1141.73 358.06 L1140.65 357.07 L1139.38 356.53 L1138.03 355.98 L1136.67 355.35 L1135.68 354.45 L1134.68 353.45 L1133.59 352.46 L1132.60 351.37 L1131.70 350.29 L1130.79 349.29 L1129.80 348.30 L1128.62 347.39 L1127.44 346.40 L1126.27 345.49 L1125.09 344.59 L1123.92 343.77 L1122.74 342.87 L1121.66 341.97 L1120.66 340.97 L1119.67 340.07 L1118.67 339.16 L1117.68 338.35 L1116.41 337.35 L1115.33 336.36 L1114.24 335.36 L1113.43 334.28 L1112.52 333.19 L1111.35 332.02 L1110.26 331.20 L1108.99 330.30 L1107.73 329.39 L1106.37 328.40 L1105.02 327.50 L1103.75 326.68 L1102.57 325.96 L1101.49 325.05 L1100.58 324.06 L1099.77 322.79 L1098.96 321.62 L1097.96 320.71 L1096.60 320.53 L1095.25 320.89 L1094.07 321.62 L1092.81 322.61 L1091.63 323.70 L1090.36 324.78 L1089.19 325.87 L1088.01 326.95 L1086.93 328.04 L1085.84 329.21 L1084.85 330.30 L1083.85 331.57 L1083.13 332.56 L1082.50 333.83 L1081.95 335.00 L1081.41 336.18 L1080.78 337.35 L1079.96 338.62 L1079.06 339.98 L1078.06 341.24 L1076.62 343.50 " stroke-linecap='round' stroke-linejoin='round' brush-type='2' stroke-wetness='0.5'></path><path  style = ' stroke:#FFFF73;  fill:none;  stroke-width:5.0;' d="M907.58 490.29 L908.53 489.07 L908.40 491.56 L908.21 495.26 L907.31 501.14 L906.86 504.94 L907.13 507.47 L908.03 508.74 L910.11 508.92 L912.74 508.38 L916.44 507.11 L919.79 505.76 L923.23 504.31 L925.67 503.22 L927.75 502.32 L929.11 501.60 " stroke-linecap='round' stroke-linejoin='round' brush-type='2' stroke-wetness='0.5'></path><path  style = ' stroke:#FFFF73;  fill:none;  stroke-width:5.0;' d="M922.78 489.75 L922.37 491.10 L922.05 492.55 L921.42 495.72 L920.97 499.52 L920.51 504.22 L920.24 509.19 L920.06 513.35 L920.15 516.25 " stroke-linecap='round' stroke-linejoin='round' brush-type='2' stroke-wetness='0.5'></path><path  style = ' stroke:#FFFF73;  fill:none;  stroke-width:5.0;' d="M936.34 474.55 L937.29 473.74 L938.33 473.11 L940.50 471.75 L942.85 470.39 L945.21 469.04 L947.29 467.86 L948.91 467.05 " stroke-linecap='round' stroke-linejoin='round' brush-type='2' stroke-wetness='0.5'></path><path  style = ' stroke:#FFFF73;  fill:none;  stroke-width:5.0;' d="M939.87 474.28 L938.11 475.64 L937.16 477.00 L935.53 479.71 L935.35 482.24 L935.98 484.32 L937.16 485.59 L938.87 486.13 L940.77 486.04 L942.94 485.59 L944.84 485.04 L946.47 484.59 L947.92 484.50 L949.27 484.86 L950.63 485.77 L951.54 487.12 L952.08 488.75 L952.26 490.56 L952.35 492.37 L952.17 494.18 L951.63 495.81 L950.63 497.34 L949.18 498.61 L947.38 499.70 L945.21 500.60 L943.03 501.32 L940.41 501.14 " stroke-linecap='round' stroke-linejoin='round' brush-type='2' stroke-wetness='0.5'></path><path  style = ' stroke:#FFFF73;  fill:none;  stroke-width:5.0;' d="M980.57 444.44 L980.84 446.06 L980.84 447.78 L980.84 452.21 L980.66 457.91 L980.66 464.24 L980.84 469.76 L981.20 473.83 L981.65 476.72 L985.00 473.02 L988.80 467.68 L993.14 461.44 L994.95 460.72 L996.30 461.62 L997.03 464.06 L997.39 467.32 L997.66 470.39 L998.11 472.56 L998.75 473.92 L999.92 474.55 L1001.55 474.37 " stroke-linecap='round' stroke-linejoin='round' brush-type='2' stroke-wetness='0.5'></path><path  style = ' stroke:#FFFF73;  fill:none;  stroke-width:5.0;' d="M1019.10 457.19 L1019.37 455.97 L1019.46 455.11 L1019.55 453.30 L1019.10 451.58 L1018.37 449.68 L1017.38 447.96 L1016.29 446.88 L1014.66 447.24 L1013.04 448.96 L1011.68 452.03 L1011.14 455.56 L1011.14 458.82 L1011.59 461.08 L1012.58 462.25 L1014.03 462.43 L1015.75 461.80 L1017.38 460.26 L1018.82 458.00 L1020.09 455.02 L1021.18 451.40 L1021.90 447.87 L1022.35 445.16 L1022.62 443.35 L1022.53 444.53 L1022.35 447.33 L1022.26 451.40 L1022.80 453.93 L1023.89 455.65 L1025.25 456.65 L1027.24 457.10 L1029.50 456.74 L1031.94 455.83 " stroke-linecap='round' stroke-linejoin='round' brush-type='2' stroke-wetness='0.5'></path><path  style = ' stroke:#0000FF;  fill:none;  stroke-width:5.0;' d="M506.02 341.06 L507.24 340.79 L508.19 340.88 L509.82 341.06 L510.90 341.88 L511.81 342.96 L512.89 344.23 L514.07 345.22 L515.16 346.04 L516.24 346.76 L517.42 347.57 L518.77 348.39 L519.95 349.20 L521.12 350.20 L522.12 351.19 L523.30 352.37 L524.20 353.36 L525.28 354.63 L526.19 355.80 L527.36 357.07 L528.54 358.06 L529.90 358.97 L531.34 359.60 L532.88 360.14 L534.33 360.51 L535.69 360.87 L537.04 361.23 L538.49 361.77 L539.76 362.41 L540.93 363.22 L542.11 364.21 L543.28 365.21 L544.55 366.39 L545.54 367.38 L546.54 368.47 L547.44 369.46 L548.44 370.36 L549.52 371.45 L550.52 372.44 L551.60 373.71 L552.69 374.89 L553.77 376.06 L554.68 377.06 L555.58 378.05 L556.40 379.23 L557.30 380.40 L558.02 381.58 L558.84 382.85 L559.56 384.11 L560.47 385.56 L561.10 386.73 L561.82 388.18 L562.37 389.36 L563.09 390.62 L563.81 391.71 L564.63 392.88 L565.53 393.97 L566.53 395.15 L567.52 396.41 L568.33 397.59 L568.97 398.85 L569.51 400.30 L570.05 401.66 L570.51 403.20 L570.87 404.46 L571.23 406.18 L571.50 407.54 L571.77 409.07 L571.86 410.43 L571.95 411.88 L571.95 413.41 L571.95 414.95 L571.95 416.40 L572.13 417.67 L572.59 419.02 L573.13 420.29 L573.58 421.74 L573.76 423.00 L573.85 424.45 L573.85 425.81 L573.76 427.43 L573.58 428.97 L573.22 430.33 L572.68 431.68 L572.04 433.04 L571.23 434.67 L570.51 436.03 L569.60 437.65 L568.97 439.01 L568.24 440.37 L567.52 441.81 L566.62 443.44 L565.71 445.16 L564.90 446.52 L564.08 447.69 L563.27 448.78 L562.55 449.86 L561.82 450.95 L561.19 452.03 L560.38 453.48 L559.56 455.02 L558.66 456.65 L557.84 458.00 L557.03 459.27 L556.31 460.54 L555.58 461.89 L554.95 463.25 L554.32 464.51 L553.50 465.96 L552.69 467.41 L551.78 468.77 L551.06 469.85 L550.25 471.03 L549.43 472.47 L548.62 474.10 L547.80 475.73 L546.99 477.45 L546.18 478.99 L545.45 480.52 L544.73 481.79 L543.83 483.24 L542.92 484.68 L542.11 486.22 L541.56 487.49 L541.02 488.66 L540.39 489.75 L539.48 491.10 L538.58 492.46 L537.68 493.82 L536.77 495.17 L535.87 496.62 L534.96 498.25 L534.24 499.61 L533.42 500.96 L532.61 502.14 L531.80 503.31 L531.07 504.40 L530.44 505.57 L529.90 506.75 L529.35 507.93 L528.72 509.28 L528.09 510.55 L527.46 512.09 L526.82 513.44 L526.28 514.80 L525.74 516.25 L525.28 517.69 L524.83 519.32 L524.47 520.68 L524.11 522.04 L523.84 523.39 L523.57 524.75 L523.39 526.11 L523.20 527.46 L523.11 528.82 L523.11 530.45 L523.11 532.16 L523.11 533.88 L523.11 535.42 L523.11 536.87 L523.02 538.41 L522.93 540.03 L522.75 541.75 L522.66 543.56 L522.48 545.28 L522.21 547.09 L521.85 548.81 L521.40 550.61 L521.03 552.33 L520.58 554.23 L520.13 556.13 L519.68 558.03 L519.23 559.75 L518.77 561.38 L518.32 563.01 L517.96 564.63 L517.69 566.26 L517.42 567.89 L517.24 569.52 L517.05 571.24 L516.87 572.95 L516.60 574.76 L516.42 576.66 L516.33 578.65 L516.24 580.64 L516.06 582.54 L515.79 584.44 L515.52 586.34 L515.25 588.15 L514.97 589.87 L514.61 591.40 L514.25 592.94 L513.80 594.39 L513.53 595.93 L513.26 597.46 L513.08 599.18 L512.80 600.81 L512.53 602.44 L512.26 603.88 L512.08 605.24 L511.81 606.69 L511.54 608.14 L511.18 609.76 L510.90 611.30 L510.63 613.02 L510.36 614.83 L510.09 616.82 L509.82 618.72 L509.46 620.62 L509.10 622.43 L508.73 624.23 L508.46 626.04 L508.19 627.76 L507.92 629.48 L507.65 631.11 L507.38 632.74 L507.20 634.54 L507.11 636.53 L507.11 638.61 L507.11 640.51 L507.11 642.41 L507.02 644.31 L506.93 646.30 L506.83 648.11 L506.83 649.74 L506.83 651.28 L506.83 652.81 L506.93 654.44 L507.11 655.98 L507.38 657.43 L507.56 658.87 L507.74 660.50 L507.83 662.04 L507.92 663.76 L507.92 665.20 L507.92 666.65 L507.92 668.28 L507.83 670.09 L507.74 672.17 L507.56 673.98 L507.47 675.97 L507.38 677.96 L507.38 679.95 L507.38 681.85 L507.47 683.74 L507.74 685.46 L508.10 687.09 L508.55 688.54 L509.01 690.08 L509.55 691.52 L510.09 693.06 L510.54 694.51 L511.18 696.23 L511.72 697.85 L512.35 699.57 L512.71 701.11 L513.08 702.65 L513.26 704.18 L513.44 705.63 L513.53 707.08 L513.71 708.44 L513.89 709.79 L514.16 711.15 L514.34 712.51 L514.61 714.31 L514.88 716.21 L515.16 717.84 L515.34 719.38 L515.43 720.74 L515.52 722.27 L515.52 723.63 L515.52 725.08 L515.61 726.80 L515.79 728.24 L516.06 729.96 L516.24 731.41 L516.33 732.85 L516.51 734.48 L516.78 736.29 L517.15 738.19 L517.51 739.64 L517.96 741.08 L518.59 742.53 L519.23 743.98 L519.86 745.34 L520.49 746.69 L521.03 747.96 L521.76 749.50 L522.39 751.03 L523.20 752.75 L524.02 754.29 L524.74 755.74 L525.47 757.00 L526.01 758.18 L526.91 759.72 L527.73 761.16 L528.63 762.70 L529.35 764.06 L530.08 765.41 L530.89 766.95 L531.62 768.31 L532.43 770.03 L532.97 771.29 L533.51 772.65 L534.06 773.92 L534.60 775.18 L535.14 776.54 L535.50 777.71 L535.96 779.07 L536.41 780.25 L536.95 781.78 L537.40 783.23 L537.86 784.86 L538.31 786.31 L538.85 787.84 L539.39 789.20 L539.94 790.38 L540.39 791.55 L540.93 792.91 L542.47 794.90 " stroke-linecap='round' stroke-linejoin='round' brush-type='2' stroke-wetness='0.5'></path><path  style = ' stroke:#0000FF;  fill:none;  stroke-width:5.0;' d="M542.11 791.73 L542.51 793.22 L542.74 794.08 L543.10 795.71 L543.28 797.07 L543.37 798.42 L543.46 800.14 L543.37 801.68 L543.19 803.22 L542.83 804.76 L542.38 806.11 L541.75 807.47 L541.11 808.55 L540.30 810.00 L539.48 811.54 L538.67 813.26 L538.04 814.79 L537.49 816.42 L536.86 818.05 L536.23 819.59 L535.60 821.04 L535.05 822.48 L534.51 824.02 L533.97 825.56 L533.42 827.00 L532.88 828.36 L532.43 829.72 L532.07 831.07 L531.80 832.61 L531.53 834.06 L531.25 835.42 L530.89 836.86 L530.53 838.22 L530.08 839.76 L529.63 841.20 L529.26 842.74 L528.90 844.37 L528.63 845.64 L528.09 847.17 L527.64 848.44 L527.09 849.89 L526.73 851.24 L526.37 852.69 L526.10 854.05 L525.74 855.49 L525.28 857.03 L524.83 858.48 L524.38 860.02 L523.93 861.46 L523.48 863.18 L523.02 864.63 L522.57 866.17 L522.12 867.61 L521.67 869.15 L521.40 870.60 L521.12 872.13 L520.85 873.67 L520.49 875.30 L520.13 877.02 L519.86 878.74 L519.59 880.46 L519.32 882.08 L519.04 883.62 L518.77 885.25 L518.59 886.97 L518.50 888.96 L518.50 891.04 L518.41 893.12 L518.32 895.20 L518.23 897.19 L518.23 899.27 L518.23 901.26 L518.23 903.34 L518.23 905.33 L518.23 907.23 L518.23 909.03 L518.23 910.93 L518.23 912.92 L518.14 915.00 L518.05 916.99 L517.87 918.98 L517.78 920.88 L517.69 922.78 L517.60 924.68 L517.42 926.58 L517.24 928.48 L517.05 930.47 L516.87 932.55 L516.69 934.54 L516.42 936.44 L516.15 938.34 L515.79 940.15 L515.52 941.87 L515.25 943.40 L514.97 945.12 L514.70 946.75 L514.43 948.20 L514.16 949.55 L513.89 950.91 L513.71 952.36 L513.53 953.80 L513.35 955.25 L513.08 956.70 L512.80 958.24 L512.53 959.95 L512.26 961.85 L511.99 963.57 L511.72 965.20 L511.45 966.65 L511.09 968.18 L510.72 969.63 L510.27 971.26 L509.91 972.71 L509.55 974.33 L509.28 975.60 L508.91 976.96 L508.46 978.13 L508.01 979.58 L507.74 980.94 L507.47 982.47 L507.20 984.10 " stroke-linecap='round' stroke-linejoin='round' brush-type='2' stroke-wetness='0.5'></path><path  style = ' stroke:#0000FF;  fill:none;  stroke-width:5.0;' d="M563.00 807.47 L562.73 809.23 L562.55 810.82 L562.28 813.89 L562.18 817.42 L562.28 821.31 L562.55 825.29 L563.00 828.36 L563.63 830.62 L564.36 832.34 L565.26 833.61 L566.35 833.70 L567.34 832.70 L568.15 830.62 L568.70 828.00 L569.33 824.65 L570.14 820.76 L571.05 817.06 L571.95 814.07 L572.77 811.63 L573.49 809.91 L573.85 810.82 L573.94 813.71 L573.94 818.23 L574.03 822.03 L574.30 825.65 L574.67 828.63 L575.21 830.89 L575.75 832.52 L576.57 833.61 L577.83 833.43 L579.10 832.16 L580.18 829.81 L580.82 827.09 L581.45 824.02 L581.99 820.67 L582.72 817.24 L583.44 814.25 L584.16 811.72 L584.70 809.55 L585.34 807.47 L585.97 805.84 " stroke-linecap='round' stroke-linejoin='round' brush-type='2' stroke-wetness='0.5'></path><path  style = ' stroke:#0000FF;  fill:none;  stroke-width:5.0;' d="M597.19 824.56 L598.00 823.48 L597.91 822.48 L597.73 820.94 L596.55 820.04 L594.92 820.49 L593.39 821.76 L592.12 823.66 L591.67 825.74 L591.58 827.91 L592.03 829.99 L592.94 831.35 L594.20 831.98 L595.56 831.89 L597.10 830.80 L598.45 829.27 L599.63 827.55 L600.53 825.65 L601.26 823.30 L601.80 820.76 L601.98 818.86 L601.98 819.86 L601.89 822.57 L601.71 826.55 L601.71 829.08 L601.98 830.80 L603.43 831.44 L605.69 830.98 " stroke-linecap='round' stroke-linejoin='round' brush-type='2' stroke-wetness='0.5'></path><path  style = ' stroke:#0000FF;  fill:none;  stroke-width:5.0;' d="M624.05 798.79 L623.10 800.55 L622.42 802.31 L620.79 806.38 L619.34 810.91 L617.90 815.88 L616.90 820.49 L616.36 824.20 L616.45 827.09 L617.26 829.08 L618.71 830.44 L620.52 830.89 L622.33 830.44 L623.96 829.36 " stroke-linecap='round' stroke-linejoin='round' brush-type='2' stroke-wetness='0.5'></path><path  style = ' stroke:#0000FF;  fill:none;  stroke-width:5.0;' d="M611.84 816.69 L612.65 817.64 L614.10 817.96 L616.63 818.41 L619.71 817.87 L622.15 817.15 " stroke-linecap='round' stroke-linejoin='round' brush-type='2' stroke-wetness='0.5'></path><path  style = ' stroke:#0000FF;  fill:none;  stroke-width:5.0;' d="M631.10 820.22 L631.78 821.31 L632.55 821.67 L634.18 822.12 L635.89 821.49 L637.52 820.49 L638.79 819.32 L639.60 818.14 L639.69 816.60 L639.06 815.16 L637.79 813.89 L636.35 813.35 L634.81 813.44 L633.36 814.07 L632.01 815.16 L630.92 816.42 L630.20 818.14 L629.84 820.31 L629.74 822.93 L630.02 825.29 L630.83 827.19 L632.37 828.45 L634.63 829.27 L636.89 829.63 L639.24 829.36 " stroke-linecap='round' stroke-linejoin='round' brush-type='2' stroke-wetness='0.5'></path><path  style = ' stroke:#0000FF;  fill:none;  stroke-width:5.0;' d="M646.57 813.71 L646.30 815.20 L646.21 816.60 L646.02 819.41 L646.02 822.12 L646.11 824.65 L646.21 826.73 L646.93 826.28 L647.83 824.56 L649.01 821.85 L650.00 820.31 L651.18 818.96 L652.63 817.96 L654.44 817.15 L656.43 816.60 L658.51 816.15 " stroke-linecap='round' stroke-linejoin='round' brush-type='2' stroke-wetness='0.5'></path><path  style = ' stroke:#0000FF;  fill:none;  stroke-width:5.0;' d="M512.96 341.77 L511.63 342.30 L510.66 342.48 L508.90 342.66 L507.48 342.13 L506.25 341.24 L505.01 340.01 L503.77 338.60 L502.54 337.01 L501.30 335.77 L500.24 334.53 L499.00 333.65 L497.77 332.59 L496.35 331.71 L495.29 330.65 L494.23 329.59 L493.35 328.53 L492.47 327.11 L491.76 325.70 L491.23 324.29 L490.70 323.05 " stroke-linecap='round' stroke-linejoin='round' brush-type='2' stroke-wetness='0.5'></path><path  style = ' stroke:#0000FF;  fill:none;  stroke-width:5.0;' d="M496.53 331.71 L495.74 330.65 L494.94 330.12 L493.53 329.23 L492.12 328.35 L491.06 327.47 L490.00 326.05 L488.76 324.99 L486.99 323.76 L484.87 322.52 L482.40 321.11 L479.40 319.34 L476.04 317.40 L473.04 315.28 L470.74 313.69 L468.98 312.63 L467.39 312.28 L465.97 311.75 L464.56 311.22 L463.15 310.51 L461.56 309.80 L460.14 309.10 L458.91 308.39 L457.32 307.68 L455.73 306.80 L453.96 306.09 L452.55 305.56 L450.61 305.39 L448.66 305.21 L447.07 305.39 L445.66 305.56 L444.25 305.74 L442.48 305.56 L440.54 305.03 L438.42 304.33 L436.12 303.44 L434.00 302.38 L431.88 300.97 L430.12 299.73 L428.35 298.32 L426.58 296.73 L424.64 294.79 L422.87 293.02 L421.11 291.26 L419.34 289.49 L417.57 287.90 L415.98 286.49 L414.39 285.07 L412.80 283.13 L411.21 281.01 L409.80 278.71 L408.57 276.59 L407.51 274.48 L406.45 272.36 L405.56 270.06 L404.68 267.59 L403.97 265.11 L403.27 262.64 L402.56 259.99 L401.85 256.99 L400.97 253.63 L400.26 250.28 L399.38 246.74 L398.50 243.56 L397.79 240.74 L397.26 238.26 L397.08 235.97 L396.91 233.67 L396.91 231.91 L396.91 229.96 L396.91 228.02 L396.91 225.72 L396.91 223.60 L396.91 221.48 L396.91 219.36 L397.08 217.60 L397.26 215.83 L397.44 214.06 L397.44 212.30 L397.26 210.36 L396.91 208.41 L396.38 206.47 L395.67 204.70 L395.14 203.29 L394.61 201.52 L394.26 200.11 L393.90 198.70 L393.37 197.46 L392.67 196.05 L391.78 194.46 L391.08 192.69 L390.90 190.93 " stroke-linecap='round' stroke-linejoin='round' brush-type='2' stroke-wetness='0.5'></path></g><g id='id-text-layer'  type='type-normal' preserveAspectRatio="none" ><text  style = 'fill: #000000; font-family:Helvetica-Light; font-size:18.0; ' preserveAspectRatio="none" x= '40' y='40' width = '1520' height = '1520' transform="rotate(   0,  800,  800)" ><tspan visibility='hidden'><![CDATA[]]></tspan></text></g><recordings ></recordings><defs   ></defs><htext lang='de_DE' timestamp='20170812-175020'><![CDATA[, fist water]]></htext></svg> 