<?xml version="1.0" standalone="no"?> <!DOCTYPE svg PUBLIC "-//W3C//DTD SVG 1.1//EN" "http://www.w3.org/Graphics/SVG/1.1/DTD/svg11.dtd"> <svg   version="1.1"     xmlns="http://www.w3.org/2000/svg"  xmlns:xlink="http://www.w3.org/1999/xlink" name="" width="1600.0" height="1600.0" background="N_PAPERBACKGROUND_WHITE_BLANK" line-height="30.0" margin-top="40.0" margin-right="40.0" margin-bottom="40.0" margin-left="40.0"><g id='id-background-layer'  type='type-normal' preserveAspectRatio="none" ><rect  style = ' stroke:#FFFFFF;  fill:#FFFFFF;  stroke-width:0.0;' x="0" y="0" width="1600" height="1600" preserveAspectRatio="none" transform="rotate(   0,  800,  800)" ></rect></g><g id='id-main-layer'  type='type-normal' preserveAspectRatio="none" ><image  style = '   fill:none;  stroke-width:0.0;' x="23" y="113" width="1544" height="865" xlink:href='resources/20170812_170818.png' preserveAspectRatio="xMidYMid" transform="rotate(   0,  795,  545) "></image><path  style = ' stroke:#BF0000;  fill:none;  stroke-width:5.0;' d="M1105.52 407.50 L1106.94 406.96 L1107.77 406.63 L1107.62 406.63 L1106.10 407.21 L1103.72 408.15 L1102.27 408.88 L1100.60 409.74 L1098.79 410.76 L1096.62 411.92 L1094.23 413.22 L1091.56 414.74 L1088.73 416.33 L1085.70 417.99 L1082.58 419.66 L1079.47 421.47 L1076.36 423.35 L1073.18 425.23 L1069.85 427.11 L1066.44 429.07 L1063.19 431.02 L1059.64 433.19 L1056.10 435.29 L1052.26 437.46 L1048.79 439.49 L1045.31 441.59 L1041.98 443.69 L1038.65 445.64 L1035.47 447.59 L1032.36 449.62 L1029.32 451.79 L1026.35 453.89 L1023.53 455.84 L1020.92 457.58 L1018.54 459.17 L1016.36 460.69 L1014.27 462.21 L1012.17 463.80 L1010.07 465.40 L1008.04 467.06 L1006.09 468.73 L1004.21 470.32 L1002.32 471.84 L1000.52 473.21 L998.63 474.59 L996.75 475.89 L994.80 477.27 L992.92 478.71 L991.04 480.16 L989.23 481.54 L987.34 482.91 L985.39 484.36 L983.36 485.88 L981.34 487.47 L979.46 488.99 L977.57 490.51 L975.69 491.88 L973.81 493.33 L971.93 494.71 L970.05 496.15 L968.17 497.53 L966.28 498.98 L964.40 500.35 L962.52 501.73 L960.64 503.03 L958.83 504.26 L957.02 505.42 L955.36 506.50 L953.69 507.59 L952.10 508.67 L950.51 509.76 L948.99 510.77 L947.54 511.71 L946.17 512.58 L944.86 513.45 L943.63 514.32 L942.40 515.19 L941.24 516.06 L940.09 516.92 L939.00 517.79 L937.84 518.66 L936.76 519.53 L935.67 520.33 L934.66 521.12 L933.57 521.85 L932.20 522.86 L930.82 523.87 L929.45 524.96 L928.36 525.83 L927.28 526.69 L926.19 527.56 L925.11 528.50 L924.09 529.37 L922.72 530.46 L921.27 531.47 L919.90 532.41 L918.81 533.14 L917.80 533.79 L916.64 534.51 L915.19 535.31 L913.74 536.10 L912.15 536.90 L910.85 537.55 L909.40 538.13 L907.95 538.64 L906.43 539.07 L904.84 539.58 L903.18 540.16 L901.44 540.81 L899.63 541.53 L897.68 542.33 L895.65 543.12 L893.26 543.99 L891.09 544.79 L888.85 545.58 L886.82 546.38 L884.51 547.32 L882.12 548.33 L879.73 549.35 L877.34 550.29 L875.03 551.30 L872.71 552.39 L870.47 553.54 L868.22 554.77 L866.12 555.93 L864.03 557.09 L862.00 558.18 L859.97 559.33 L858.09 560.49 L856.35 561.65 L854.76 562.73 L853.24 563.89 L851.87 565.05 L850.56 566.21 L849.55 567.22 L848.32 568.45 L847.16 569.83 L845.72 571.49 L844.49 573.08 L843.18 574.75 L841.95 576.41 L840.72 578.22 L839.56 580.10 L838.55 581.99 L837.61 583.79 L836.81 585.46 L836.09 587.05 L835.51 588.72 L834.93 590.45 L834.50 592.19 L834.06 593.78 L833.78 595.30 L833.49 596.82 L833.34 598.34 L833.12 599.93 L832.91 601.60 L832.62 603.48 L832.40 605.43 L832.26 607.39 L832.18 609.12 L832.18 610.64 L832.18 612.09 L832.33 613.47 L832.62 614.84 L833.05 616.07 L833.85 617.37 L834.79 618.39 L836.38 619.11 L837.90 619.33 L839.64 619.33 L841.16 619.11 L842.82 618.68 L844.63 618.10 L846.51 617.30 L848.47 616.36 L850.49 615.28 L852.59 614.05 L854.83 612.60 L857.01 611.08 L859.10 609.70 L861.13 608.47 L863.23 607.24 L865.33 605.94 L867.35 604.71 L869.16 603.55 L871.19 602.25 L873.29 600.80 L875.53 599.21 L877.56 597.62 L879.51 596.02 L881.47 594.43 L883.49 592.91 L885.52 591.25 L887.62 589.44 L889.72 587.56 L891.96 585.60 L894.20 583.50 L896.38 581.26 L898.40 579.16 L900.36 577.28 L902.38 575.54 L904.48 573.66 L906.65 571.71 L908.82 569.68 L910.92 567.87 L912.88 566.28 L914.83 564.91 L916.78 563.68 L918.88 562.45 L920.91 561.29 L922.86 560.20 L924.60 559.41 L926.34 558.83 L928.29 558.25 L930.39 557.60 L932.56 556.80 L934.80 556.00 L937.19 555.14 L939.65 554.27 L942.04 553.40 L944.36 552.53 L946.67 551.66 L948.99 550.79 L951.30 549.93 L953.55 548.98 L955.79 548.04 L958.03 547.03 L960.28 545.94 L962.52 544.71 L964.76 543.34 L967.01 541.96 L969.18 540.59 L971.35 539.21 L973.52 537.77 L975.77 536.17 L978.01 534.58 L980.18 532.99 L982.28 531.62 L984.38 530.39 L986.62 529.16 L988.94 527.85 L991.32 526.40 L993.79 524.96 L996.25 523.44 L998.78 521.92 L1001.38 520.47 L1004.06 519.10 L1006.81 517.79 L1009.63 516.42 L1012.60 515.04 L1015.64 513.60 L1018.61 512.29 L1021.50 510.99 L1024.40 509.76 L1027.36 508.31 L1030.48 506.72 L1033.59 504.98 L1036.77 503.32 L1039.88 501.65 L1043.07 499.99 L1046.18 498.25 L1049.37 496.52 L1052.40 494.85 L1055.37 493.26 L1058.27 491.74 L1061.16 490.15 L1063.98 488.56 L1066.66 486.96 L1069.34 485.52 L1072.02 484.07 L1074.77 482.62 L1077.37 481.17 L1079.91 479.73 L1082.29 478.28 L1084.68 476.76 L1087.14 475.31 L1089.68 473.79 L1092.28 472.27 L1094.81 470.54 L1097.35 468.80 L1100.02 466.70 L1102.56 464.82 L1104.80 463.15 L1107.12 461.71 L1109.58 460.19 L1112.25 458.52 L1114.64 457.07 L1117.10 455.63 L1119.42 454.18 L1121.59 452.73 L1123.47 451.50 L1125.21 450.42 L1126.80 449.48 L1128.18 448.53 L1129.41 447.59 L1130.42 446.58 L1131.36 445.50 L1132.16 444.26 L1132.95 442.89 L1133.68 441.44 L1134.26 440.14 L1134.62 438.91 L1134.83 437.25 L1134.98 435.44 L1135.05 433.48 L1134.98 431.89 L1134.83 430.23 L1134.54 428.71 L1134.11 427.19 L1133.53 425.74 L1132.81 424.22 L1132.08 422.63 L1131.36 421.11 L1130.64 419.66 L1129.77 418.43 L1128.83 417.27 L1127.89 416.26 L1126.87 415.32 L1125.64 414.59 L1124.12 414.01 L1122.39 413.58 L1120.51 413.15 L1118.55 412.71 L1116.52 412.35 L1114.50 412.06 L1112.54 411.84 L1110.74 411.63 L1109.00 411.41 L1107.19 411.19 L1105.45 411.05 L1103.64 411.12 " stroke-linecap='round' stroke-linejoin='round' brush-type='2' stroke-wetness='0.5'></path><path  style = ' stroke:#BF0000;  fill:none;  stroke-width:5.0;' d="M996.12 238.89 L997.86 241.71 L998.43 243.95 L999.30 250.75 L998.58 259.44 L997.28 271.30 L995.40 285.48 L993.08 302.12 L990.62 320.78 L988.45 340.02 L986.86 358.69 L985.70 375.76 L984.83 390.37 L983.97 402.81 L983.24 413.52 L982.52 423.07 L981.65 431.32 L980.64 437.97 " stroke-linecap='round' stroke-linejoin='round' brush-type='2' stroke-wetness='0.5'></path><path  style = ' stroke:#BF0000;  fill:none;  stroke-width:5.0;' d="M961.83 396.88 L961.83 398.40 L961.83 401.08 L962.41 407.73 L963.71 417.86 L966.17 429.29 L969.50 439.71 L973.69 447.23 L978.03 452.44 L982.09 455.77 L985.41 457.50 L988.31 457.50 L990.91 455.62 L993.52 451.86 L995.97 446.65 L999.16 438.12 L1003.06 426.97 L1007.84 413.37 L1012.76 400.35 L1017.82 388.49 L1023.32 378.22 " stroke-linecap='round' stroke-linejoin='round' brush-type='2' stroke-wetness='0.5'></path></g><g id='id-text-layer'  type='type-normal' preserveAspectRatio="none" ><text  style = 'fill: #000000; font-family:Helvetica-Light; font-size:18.0; ' preserveAspectRatio="none" x= '40' y='40' width = '1520' height = '1520' transform="rotate(   0,  800,  800)" ><tspan visibility='hidden'><![CDATA[]]></tspan></text></g><recordings ></recordings><defs   ></defs><htext lang='de_DE' timestamp='20170812-175020'><![CDATA[รถ]]></htext></svg> 