<?xml version="1.0" standalone="no"?> <!DOCTYPE svg PUBLIC "-//W3C//DTD SVG 1.1//EN" "http://www.w3.org/Graphics/SVG/1.1/DTD/svg11.dtd"> <svg   version="1.1"     xmlns="http://www.w3.org/2000/svg"  xmlns:xlink="http://www.w3.org/1999/xlink" name="" width="1600.0" height="1600.0" background="N_PAPERBACKGROUND_WHITE_BLANK" line-height="30.0" margin-top="40.0" margin-right="40.0" margin-bottom="40.0" margin-left="40.0"><g id='id-background-layer'  type='type-normal' preserveAspectRatio="none" ><rect  style = ' stroke:#FFFFFF;  fill:#FFFFFF;  stroke-width:0.0;' x="0" y="0" width="1600" height="1600" preserveAspectRatio="none" transform="rotate(   0,  800,  800)" ></rect></g><g id='id-main-layer'  type='type-normal' preserveAspectRatio="none" ><image  style = '   fill:none;  stroke-width:0.0;' x="26" y="94" width="1548" height="867" xlink:href='resources/20170812_170556.png' preserveAspectRatio="xMidYMid" transform="rotate(   0,  800,  527) "></image><path  style = ' stroke:#BF0000;  fill:none;  stroke-width:5.0;' d="M945.02 560.48 L945.91 559.58 L946.41 558.89 L945.62 558.10 L942.45 558.49 L937.30 560.08 L931.95 562.46 L926.20 565.43 L920.26 569.19 L914.31 573.16 L908.77 577.32 L903.42 581.28 L897.87 585.44 L892.32 589.60 L886.97 593.56 L881.82 597.52 L877.07 601.49 L872.91 605.25 L869.74 608.42 L866.77 611.99 L863.99 615.55 L861.61 619.12 L860.43 621.10 L860.82 622.29 L862.41 622.88 L865.78 623.48 L869.74 623.87 L874.69 624.07 L879.45 624.07 L885.19 623.68 L890.54 622.68 L895.49 621.10 L899.46 619.12 L903.62 616.94 L908.17 614.17 L913.13 611.00 L918.08 607.23 L923.23 603.07 L927.79 599.31 L931.75 595.94 L935.51 592.57 L939.47 588.61 L943.64 584.45 L946.81 580.68 L949.18 577.32 L950.77 573.95 L951.96 570.78 L952.75 567.41 L952.95 564.44 L952.35 561.66 L950.37 559.68 L946.61 559.09 L940.66 561.07 " stroke-linecap='round' stroke-linejoin='round' brush-type='2' stroke-wetness='0.5'></path><path  style = ' stroke:#BF0000;  fill:none;  stroke-width:5.0;' d="M923.63 374.44 L923.92 372.36 L924.02 370.88 L924.22 368.50 L923.43 369.69 L922.04 374.84 L919.86 384.55 L917.68 397.03 L915.50 411.29 L913.92 425.95 L913.13 441.01 L912.73 456.86 L912.53 474.49 L912.73 489.35 L913.52 505.00 L914.71 518.87 L915.90 533.93 L916.69 543.64 L917.09 549.38 L917.09 551.56 L916.69 551.16 " stroke-linecap='round' stroke-linejoin='round' brush-type='2' stroke-wetness='0.5'></path><path  style = ' stroke:#BF0000;  fill:none;  stroke-width:5.0;' d="M904.01 526.00 L903.12 524.52 L901.24 521.84 L898.66 518.08 L896.68 515.11 L896.68 517.88 L897.67 524.62 L899.46 534.13 L902.03 542.05 L905.20 548.19 L908.77 552.55 L912.33 555.32 L915.70 556.32 L919.07 555.52 L922.24 552.75 L925.41 548.39 L928.38 542.64 L931.35 535.12 L934.32 525.61 L937.30 514.91 L940.27 504.21 L943.64 495.29 " stroke-linecap='round' stroke-linejoin='round' brush-type='2' stroke-wetness='0.5'></path></g><g id='id-text-layer'  type='type-normal' preserveAspectRatio="none" ><text  style = 'fill: #000000; font-family:Helvetica-Light; font-size:18.0; ' preserveAspectRatio="none" x= '40' y='40' width = '1520' height = '1520' transform="rotate(   0,  800,  800)" ><tspan visibility='hidden'><![CDATA[]]></tspan></text></g><recordings ></recordings><defs   ></defs><htext lang='de_DE' timestamp='20170812-175020'><![CDATA[d]]></htext></svg> 